<svg version="1.1" id="Layer_1" xmlns="http://www.w3.org/2000/svg" xmlns:xlink="http://www.w3.org/1999/xlink" x="0px" y="0px"
	 width="100%" viewBox="0 0 1024 1024" enable-background="new 0 0 1024 1024" xml:space="preserve">
<path fill="#FDFDFD" opacity="1.000000" stroke="white" 
	d="
M555.684570,744.256226 
	C560.692871,750.907166 565.459778,757.287476 570.199036,763.688293 
	C580.092896,777.050903 584.147949,792.368286 584.950256,808.682556 
	C585.260986,814.999756 585.064880,821.345886 584.981873,827.677246 
	C584.909058,833.230713 581.202026,837.008850 575.658875,837.011414 
	C510.834412,837.041138 446.009979,837.040833 381.185547,836.995239 
	C375.593750,836.991272 371.992340,833.200134 371.987030,827.579834 
	C371.963135,802.250000 372.091522,776.919373 371.901367,751.591003 
	C371.863190,746.507996 371.103546,741.332764 369.932983,736.375671 
	C367.248108,725.005676 357.110443,717.147461 345.317627,717.084839 
	C323.654633,716.969849 301.960999,716.287109 280.333771,717.163757 
	C241.810349,718.725342 215.661453,688.778198 210.227036,659.736816 
	C207.859497,647.084656 207.491165,633.976807 207.130661,621.050354 
	C206.634399,603.256897 207.006348,585.439209 207.006348,568.191406 
	C194.313812,566.425720 181.399368,566.325623 170.007599,560.081665 
	C154.456360,551.557983 149.031342,533.461914 157.625153,516.627197 
	C164.375107,503.404602 172.581741,490.917358 180.302643,478.201416 
	C185.711258,469.293701 191.245972,460.454834 196.985764,451.757751 
	C205.049271,439.539734 208.372604,425.849518 209.984604,411.596313 
	C214.470383,371.933502 222.593521,333.506775 244.348114,298.993469 
	C269.894653,258.464233 304.583191,228.966217 347.919556,208.862885 
	C373.365326,197.058823 399.869019,189.329163 427.554321,186.331848 
	C471.261963,181.599915 514.774536,182.387741 557.332031,195.364685 
	C618.711365,214.080948 656.358887,255.761841 673.949646,316.534454 
	C682.438293,345.861053 686.415466,375.868469 685.654785,407.320740 
	C691.917236,407.320740 698.166260,407.427490 704.404663,407.217102 
	C705.461243,407.181458 706.606995,405.910889 707.484131,404.993378 
	C736.025452,375.138947 764.538818,345.257812 793.191284,315.239288 
	C786.838989,303.453918 785.679749,291.305603 791.057617,278.969299 
	C798.675598,261.494476 817.133850,254.869843 830.933167,257.474182 
	C850.256531,261.121033 862.658142,276.042389 863.142090,294.162231 
	C863.753479,317.050568 842.201294,338.410858 813.944031,330.648926 
	C810.472351,329.695282 808.872498,330.450317 806.820190,332.604034 
	C779.699585,361.064697 752.547913,389.495728 725.398376,417.928741 
	C723.327637,420.097443 721.525635,422.736938 719.044678,424.247375 
	C715.678223,426.296844 711.870117,428.445801 708.084961,428.807098 
	C700.672485,429.514587 693.144836,429.014954 685.525940,429.014954 
	C684.335083,439.425018 683.173645,449.577362 681.938049,460.378326 
	C684.325806,460.492584 686.745178,460.705200 689.164978,460.709808 
	C732.990845,460.793457 776.816956,460.805420 820.642090,461.013306 
	C823.816284,461.028320 824.339905,459.261078 825.353088,457.175110 
	C837.059265,433.074677 867.874756,427.054504 886.697510,445.152893 
	C901.247437,459.142822 902.439087,482.125549 889.429321,497.840149 
	C877.277771,512.517944 854.891846,515.225403 838.613098,504.080200 
	C830.884399,498.788757 826.222961,491.412598 823.412720,482.232178 
	C821.154724,482.232178 818.860107,482.229614 816.565491,482.232513 
	C770.905273,482.290344 725.244995,482.394379 679.584961,482.327454 
	C675.603027,482.321594 673.479065,483.498535 671.559387,487.155548 
	C665.104065,499.452972 656.505371,510.179901 645.410156,519.785400 
	C647.136597,519.956238 648.313049,520.173950 649.489563,520.173950 
	C668.153625,520.174316 686.818542,520.240051 705.481201,520.067932 
	C710.989929,520.017212 715.439575,521.627502 719.237061,525.682434 
	C744.399292,552.551025 769.699280,579.291199 794.761353,606.252502 
	C797.811218,609.533447 800.214111,610.027954 804.474609,608.712830 
	C818.901062,604.259705 832.269531,606.961426 842.991577,617.722290 
	C853.814209,628.584045 856.956665,641.927979 851.955200,656.621643 
	C847.081848,670.938782 836.596497,679.479797 821.972168,681.802368 
	C793.435913,686.334412 770.702454,657.381470 781.451050,630.510803 
	C782.895386,626.900085 782.788879,624.752808 780.075989,621.901550 
	C755.392151,595.959045 730.879089,569.854004 706.214722,543.892883 
	C705.159851,542.782532 703.116028,542.087769 701.530212,542.083008 
	C668.035645,541.982910 634.539490,541.881165 601.047363,542.187195 
	C597.188965,542.222473 592.913696,543.978516 589.575562,546.104614 
	C563.568848,562.669006 545.602966,584.907898 543.053772,616.742004 
	C541.927795,630.804382 542.339417,645.014465 542.528198,659.151062 
	C542.746094,675.466064 543.342957,691.780396 544.049438,708.083130 
	C544.610229,721.023682 547.930115,733.199707 555.684570,744.256226 
M393.844940,767.927002 
	C393.844940,783.849487 393.844940,799.772034 393.844940,815.664062 
	C450.448578,815.664062 506.662445,815.664062 564.095215,815.664062 
	C562.774719,806.864746 561.833313,798.510620 560.207947,790.291809 
	C558.209045,780.185059 550.386719,773.569885 544.368286,765.986694 
	C530.720825,748.791260 521.955322,729.531433 521.161682,707.547791 
	C520.158447,679.754272 520.013428,651.916443 520.178955,624.101746 
	C520.233704,614.901672 521.488647,605.481812 523.768250,596.564697 
	C530.525513,570.132935 547.171936,550.393250 568.650330,534.557678 
	C575.340027,529.625488 582.745789,525.004089 590.544617,522.396667 
	C601.371460,518.776794 612.083740,515.264587 621.816772,509.198486 
	C645.572266,494.392822 659.486084,473.163971 661.897339,445.248932 
	C663.183167,430.362030 662.674011,415.321259 663.006287,400.350616 
	C663.573547,374.797455 660.356812,349.694366 653.972595,324.982697 
	C643.419800,284.135468 621.118958,251.834808 584.120178,230.696075 
	C556.274231,214.786682 525.327332,208.971420 493.985535,206.296616 
	C469.469208,204.204300 444.868195,205.850006 420.398773,209.811325 
	C394.242157,214.045776 369.323853,221.399094 345.958710,233.994186 
	C304.108246,256.553802 271.742950,288.141479 251.441132,331.628662 
	C238.776978,358.755676 235.329575,387.966522 231.050461,417.017670 
	C228.421082,434.868866 223.563354,451.795471 213.335083,466.981750 
	C204.279861,480.426392 195.571762,494.110229 186.950058,507.838959 
	C183.273468,513.693420 179.551483,519.670593 177.016006,526.054993 
	C173.225342,535.599915 178.898712,543.002197 187.188126,543.210327 
	C193.996658,543.381165 200.800232,544.011841 207.589828,544.619568 
	C221.238937,545.841125 229.411392,555.081360 229.358032,568.638184 
	C229.266235,591.966858 228.966293,615.306580 229.582245,638.619812 
	C229.800964,646.898010 231.187805,655.601990 234.197861,663.264465 
	C243.374664,686.625305 258.570221,694.571289 279.802032,694.894470 
	C301.123596,695.218994 322.458801,694.793457 343.786194,694.541321 
	C365.000977,694.290527 380.626221,703.267090 389.357178,722.721497 
	C391.942230,728.481506 392.527222,735.139099 393.789734,741.679932 
	C393.862549,750.120728 393.935394,758.561584 393.844940,767.927002 
M835.879395,281.505157 
	C828.315796,276.616882 820.885315,276.709076 814.817505,281.766418 
	C809.420105,286.265106 807.378784,293.782227 809.819519,300.171844 
	C812.398376,306.922913 818.440735,311.468536 825.229187,311.417145 
	C832.613342,311.361206 837.716003,307.489288 840.807678,301.022400 
	C843.846985,294.664948 842.186768,287.993042 835.879395,281.505157 
M843.997620,475.076752 
	C844.459595,476.647278 844.719116,478.314850 845.417236,479.772278 
	C849.289429,487.856323 859.520020,491.497803 867.364014,487.677795 
	C875.942139,483.500305 879.486267,473.343140 875.271606,465.014923 
	C871.907043,458.366486 863.970825,454.432434 856.930603,456.213531 
	C847.965332,458.481628 842.805481,466.283691 843.997620,475.076752 
M827.747681,656.275696 
	C828.694946,655.122986 829.782532,654.057922 830.566528,652.803223 
	C835.217163,645.360229 833.080383,635.507629 825.757202,630.319336 
	C819.151306,625.639282 809.116211,627.114746 803.766296,633.552673 
	C798.379761,640.034607 798.642761,649.618408 804.376099,655.771545 
	C810.526123,662.371887 819.043762,662.746460 827.747681,656.275696 
z"/>
<path fill="#181A1A" opacity="1.000000" stroke="none" 
	d="
M393.909241,741.532593 
	C394.629120,741.179810 395.229492,740.974304 395.829865,740.768799 
	C395.773499,749.857910 395.717133,758.947083 395.660767,768.036194 
	C395.287018,767.802429 394.913269,767.568665 394.273865,767.168701 
	C393.935394,758.561584 393.862549,750.120728 393.909241,741.532593 
z"/>
<path fill="#FDFDFD" opacity="1.000000" stroke="none" 
	d="
M333.244690,391.528625 
	C337.915436,383.481262 346.206299,382.132416 353.408386,388.882721 
	C360.426361,395.460388 366.678955,402.875244 373.069580,410.097748 
	C389.920258,429.141876 406.663422,448.281097 423.815796,467.799408 
	C430.832733,458.879059 437.554443,450.291260 444.321136,441.739075 
	C479.254608,397.587952 514.197144,353.444031 549.148193,309.306854 
	C550.795654,307.226349 552.409363,305.087128 554.289490,303.228943 
	C559.261230,298.315216 564.933899,297.566711 569.428833,301.029694 
	C574.772949,305.146881 576.269958,311.929810 572.306091,317.821350 
	C568.054077,324.141205 563.114807,330.003540 558.400024,336.006348 
	C523.216187,380.801880 488.020935,425.588440 452.809906,470.362579 
	C446.958130,477.803680 441.219330,485.348541 435.056793,492.526520 
	C427.508240,501.318848 419.606995,501.145508 411.981537,492.391052 
	C387.066467,463.787231 362.178192,435.160095 337.281921,406.539917 
	C333.603119,402.310822 330.096161,398.025146 333.244690,391.528625 
z"/>
</svg>